<mxfile host="app.diagrams.net" modified="2024-03-07T14:14:39.034Z" agent="Mozilla/5.0 (Windows NT 10.0; Win64; x64) AppleWebKit/537.36 (KHTML, like Gecko) Chrome/122.0.0.0 Safari/537.36 Edg/122.0.0.0" etag="Y4NXevcS7Uo4AYM7BIIY" version="23.1.5" type="device">
  <diagram name="PÃ¡gina-1" id="QtPSpRnuiM47yX5Z4GX7">
    <mxGraphModel dx="537" dy="305" grid="1" gridSize="10" guides="1" tooltips="1" connect="1" arrows="1" fold="1" page="1" pageScale="1" pageWidth="827" pageHeight="1169" math="0" shadow="0">
      <root>
        <mxCell id="0" />
        <mxCell id="1" parent="0" />
        <mxCell id="M6-WJv1cJtjf_hHQN4af-7" style="edgeStyle=orthogonalEdgeStyle;rounded=0;orthogonalLoop=1;jettySize=auto;html=1;exitX=1;exitY=0.5;exitDx=0;exitDy=0;exitPerimeter=0;entryX=0.5;entryY=1;entryDx=0;entryDy=0;" edge="1" parent="1" source="M6-WJv1cJtjf_hHQN4af-3" target="M6-WJv1cJtjf_hHQN4af-5">
          <mxGeometry relative="1" as="geometry" />
        </mxCell>
        <mxCell id="M6-WJv1cJtjf_hHQN4af-3" value="" style="verticalLabelPosition=bottom;html=1;verticalAlign=top;align=center;strokeColor=none;fillColor=#00BEF2;shape=mxgraph.azure.computer;pointerEvents=1;" vertex="1" parent="1">
          <mxGeometry x="520" y="590" width="50" height="45" as="geometry" />
        </mxCell>
        <mxCell id="M6-WJv1cJtjf_hHQN4af-4" value="" style="image;points=[];aspect=fixed;html=1;align=center;shadow=0;dashed=0;image=img/lib/allied_telesis/computer_and_terminals/Server_Desktop.svg;" vertex="1" parent="1">
          <mxGeometry x="250" y="581" width="42.599999999999994" height="54" as="geometry" />
        </mxCell>
        <mxCell id="M6-WJv1cJtjf_hHQN4af-12" style="edgeStyle=orthogonalEdgeStyle;rounded=0;orthogonalLoop=1;jettySize=auto;html=1;entryX=1.002;entryY=0.534;entryDx=0;entryDy=0;entryPerimeter=0;" edge="1" parent="1" source="M6-WJv1cJtjf_hHQN4af-5" target="M6-WJv1cJtjf_hHQN4af-4">
          <mxGeometry relative="1" as="geometry">
            <mxPoint x="340.0000000000001" y="560" as="targetPoint" />
            <Array as="points">
              <mxPoint x="360" y="560" />
              <mxPoint x="360" y="610" />
            </Array>
          </mxGeometry>
        </mxCell>
        <mxCell id="M6-WJv1cJtjf_hHQN4af-5" value="27100" style="rounded=0;whiteSpace=wrap;html=1;" vertex="1" parent="1">
          <mxGeometry x="570" y="550" width="40" height="20" as="geometry" />
        </mxCell>
        <mxCell id="M6-WJv1cJtjf_hHQN4af-14" value="Proxy SOCKS" style="text;html=1;align=center;verticalAlign=middle;whiteSpace=wrap;rounded=0;" vertex="1" parent="1">
          <mxGeometry x="560" y="520" width="60" height="30" as="geometry" />
        </mxCell>
        <mxCell id="M6-WJv1cJtjf_hHQN4af-15" value="" style="shape=image;html=1;verticalAlign=top;verticalLabelPosition=bottom;labelBackgroundColor=#ffffff;imageAspect=0;aspect=fixed;image=https://cdn2.iconfinder.com/data/icons/browsers/Firefox.png" vertex="1" parent="1">
          <mxGeometry x="530" y="593" width="30" height="30" as="geometry" />
        </mxCell>
      </root>
    </mxGraphModel>
  </diagram>
</mxfile>
